<svg width="53" height="53" viewBox="0 0 53 53" fill="none" xmlns="http://www.w3.org/2000/svg">
<path d="M19.9322 33.6552L12.7486 26.6482C12.5608 26.4628 12.3371 26.3155 12.0905 26.215C11.8438 26.1145 11.5792 26.0628 11.3119 26.0628C11.0446 26.0628 10.78 26.1145 10.5334 26.215C10.2868 26.3155 10.0631 26.4628 9.87522 26.6482C9.68508 26.8315 9.53412 27.0497 9.43109 27.2903C9.32806 27.5308 9.275 27.7889 9.275 28.0496C9.275 28.3104 9.32806 28.5685 9.43109 28.809C9.53412 29.0496 9.68508 29.2678 9.87522 29.451L17.8587 39.75C19.587 41.4783 21.8913 41.4783 23.6196 39.75L43.1248 16.6383C43.3149 16.455 43.4659 16.2368 43.5689 15.9962C43.672 15.7557 43.725 15.4976 43.725 15.2369C43.725 14.9762 43.672 14.718 43.5689 14.4775C43.4659 14.2369 43.3149 14.0187 43.1248 13.8355C42.9369 13.65 42.7132 13.5027 42.4666 13.4022C42.22 13.3017 41.9554 13.25 41.6881 13.25C41.4208 13.25 41.1562 13.3017 40.9096 13.4022C40.6629 13.5027 40.4392 13.65 40.2514 13.8355L19.9322 33.6552Z" fill="#EFD7B3"/>
<rect x="0.5" y="0.5" width="52" height="52" rx="26" stroke="#EFD7B3"/>
</svg>
