<svg width="53" height="53" viewBox="0 0 53 53" fill="none" xmlns="http://www.w3.org/2000/svg">
<path d="M28.5 28C26.4925 28 25.5 26.5075 25.5 24.5C25.5 23.851 24.6975 24.0317 25 23.5C23.0087 24.9505 24.6687 22 24.5 22C23.0443 22.0096 23.6509 21.5922 22.6215 22.6215C21.5922 23.6509 21.0096 25.0443 21 26.5C21 29.5103 23.4897 32 26.5 32C29.5085 32 31 31.5 30 29C28 29.5 26.5495 30.4913 29 28C28.4683 28.3025 29.149 28 28.5 28Z" fill="#EFD7B3"/>
<path d="M26.5 13C11.6956 13 7.24632 25.7614 7.20559 25.8906L7 26.5L7.20365 27.1094C7.24632 27.2386 11.6956 40 26.5 40C41.3044 40 45.7537 27.2386 45.7944 27.1094L46 26.5L45.7963 25.8906C45.7537 25.7614 41.3044 13 26.5 13ZM26.5 36.1429C16.1216 36.1429 12.101 28.7256 11.1273 26.5C12.1048 24.2667 16.1274 16.8571 26.5 16.8571C36.8784 16.8571 40.899 24.2744 41.8727 26.5C40.8952 28.7333 36.8726 36.1429 26.5 36.1429Z" fill="#EFD7B3"/>
<path d="M12.78 10.7088C12.8048 10.7413 40.9842 41.9644 41 42" stroke="#EFD7B3" stroke-width="3" stroke-linecap="round"/>
<rect x="0.5" y="0.5" width="52" height="52" rx="26" stroke="#EFD7B3"/>
</svg>
