<svg width="53" height="53" viewBox="0 0 53 53" fill="none" xmlns="http://www.w3.org/2000/svg">
<path d="M19.3125 13C20.4562 13 21.5531 13.4741 22.3619 14.318C23.1706 15.1619 23.625 16.3065 23.625 17.5V35.5C23.625 36.6935 23.1706 37.8381 22.3619 38.682C21.5531 39.5259 20.4562 40 19.3125 40C18.1688 40 17.0719 39.5259 16.2631 38.682C15.4544 37.8381 15 36.6935 15 35.5V17.5C15 16.3065 15.4544 15.1619 16.2631 14.318C17.0719 13.4741 18.1688 13 19.3125 13ZM33.6875 13C34.8312 13 35.9281 13.4741 36.7369 14.318C37.5456 15.1619 38 16.3065 38 17.5V35.5C38 36.6935 37.5456 37.8381 36.7369 38.682C35.9281 39.5259 34.8312 40 33.6875 40C32.5438 40 31.4469 39.5259 30.6381 38.682C29.8294 37.8381 29.375 36.6935 29.375 35.5V17.5C29.375 16.3065 29.8294 15.1619 30.6381 14.318C31.4469 13.4741 32.5438 13 33.6875 13Z" fill="#EFD7B3"/>
<rect x="0.5" y="0.5" width="52" height="52" rx="26" stroke="#EFD7B3"/>
</svg>
