<svg width="53" height="53" viewBox="0 0 53 53" fill="none" xmlns="http://www.w3.org/2000/svg">
<path d="M30.1667 26.5C28.1592 26.5 26.5 24.8408 26.5 22.8333C26.5 22.1843 26.6888 21.5812 26.9913 21.0495C26.8263 21.0367 26.6687 21 26.5 21C25.0443 21.0096 23.6509 21.5922 22.6215 22.6215C21.5922 23.6509 21.0096 25.0443 21 26.5C21 29.5103 23.4897 32 26.5 32C29.5085 32 32 29.5103 32 26.5C32 26.3313 31.9633 26.1737 31.9505 26.0087C31.4188 26.3112 30.8157 26.5 30.1667 26.5Z" fill="#EFD7B3"/>
<path d="M26.5 13C11.6956 13 7.24632 25.7614 7.20559 25.8906L7 26.5L7.20365 27.1094C7.24632 27.2386 11.6956 40 26.5 40C41.3044 40 45.7537 27.2386 45.7944 27.1094L46 26.5L45.7963 25.8906C45.7537 25.7614 41.3044 13 26.5 13ZM26.5 36.1429C16.1216 36.1429 12.101 28.7256 11.1273 26.5C12.1048 24.2667 16.1274 16.8571 26.5 16.8571C36.8784 16.8571 40.899 24.2744 41.8727 26.5C40.8952 28.7333 36.8726 36.1429 26.5 36.1429Z" fill="#EFD7B3"/>
<rect x="0.5" y="0.5" width="52" height="52" rx="26" stroke="#EFD7B3"/>
</svg>
